<svg xmlns="http://www.w3.org/2000/svg" version="1.1" xmlns:xlink="http://www.w3.org/1999/xlink" xmlns:svgjs="http://svgjs.com/svgjs" width="1440" height="560" preserveAspectRatio="none" viewBox="0 0 1440 560"><g mask="url(&quot;#SvgjsMask1022&quot;)" fill="none"><rect width="1440" height="560" x="0" y="0" fill="rgba(10, 30, 143, 1)"></rect><path d="M8.83 143.13L33.08 157.13L33.08 185.13L8.83 199.13L-15.42 185.13L-15.42 157.13zM8.83 311.13L33.08 325.13L33.08 353.13L8.83 367.13L-15.42 353.13L-15.42 325.13zM81.58 101.13L105.83 115.13L105.83 143.13L81.58 157.13L57.33 143.13L57.33 115.13zM130.08 353.13L154.33 367.13L154.33 395.13L130.08 409.13L105.83 395.13L105.83 367.13zM154.33 59.13L178.58 73.13L178.58 101.13L154.33 115.13L130.08 101.13L130.08 73.13zM154.33 143.13L178.58 157.13L178.58 185.13L154.33 199.13L130.08 185.13L130.08 157.13zM178.58 521.13L202.83 535.13L202.83 563.13L178.58 577.13L154.33 563.13L154.33 535.13zM202.83 143.13L227.07 157.13L227.07 185.13L202.83 199.13L178.58 185.13L178.58 157.13zM251.32 -24.87L275.57 -10.87L275.57 17.13L251.32 31.13L227.07 17.13L227.07 -10.87zM275.57 185.13L299.82 199.13L299.82 227.13L275.57 241.13L251.32 227.13L251.32 199.13zM275.57 437.13L299.82 451.13L299.82 479.13L275.57 493.13L251.32 479.13L251.32 451.13zM299.82 59.13L324.07 73.13L324.07 101.13L299.82 115.13L275.57 101.13L275.57 73.13zM299.82 479.13L324.07 493.13L324.07 521.13L299.82 535.13L275.57 521.13L275.57 493.13zM372.57 353.13L396.82 367.13L396.82 395.13L372.57 409.13L348.32 395.13L348.32 367.13zM421.07 269.13L445.32 283.13L445.32 311.13L421.07 325.13L396.82 311.13L396.82 283.13zM445.32 59.13L469.57 73.13L469.57 101.13L445.32 115.13L421.07 101.13L421.07 73.13zM445.32 311.13L469.57 325.13L469.57 353.13L445.32 367.13L421.07 353.13L421.07 325.13zM518.07 101.13L542.32 115.13L542.32 143.13L518.07 157.13L493.82 143.13L493.82 115.13zM493.82 143.13L518.07 157.13L518.07 185.13L493.82 199.13L469.57 185.13L469.57 157.13zM518.07 269.13L542.32 283.13L542.32 311.13L518.07 325.13L493.82 311.13L493.82 283.13zM493.82 395.13L518.07 409.13L518.07 437.13L493.82 451.13L469.57 437.13L469.57 409.13zM493.82 479.13L518.07 493.13L518.07 521.13L493.82 535.13L469.57 521.13L469.57 493.13zM518.07 521.13L542.32 535.13L542.32 563.13L518.07 577.13L493.82 563.13L493.82 535.13zM566.57 17.13L590.82 31.13L590.82 59.13L566.57 73.13L542.32 59.13L542.32 31.13zM566.57 185.13L590.82 199.13L590.82 227.13L566.57 241.13L542.32 227.13L542.32 199.13zM615.07 353.13L639.31 367.13L639.31 395.13L615.07 409.13L590.82 395.13L590.82 367.13zM639.31 -24.87L663.56 -10.87L663.56 17.13L639.31 31.13L615.07 17.13L615.07 -10.87zM639.31 59.13L663.56 73.13L663.56 101.13L639.31 115.13L615.07 101.13L615.07 73.13zM663.56 185.13L687.81 199.13L687.81 227.13L663.56 241.13L639.31 227.13L639.31 199.13zM663.56 521.13L687.81 535.13L687.81 563.13L663.56 577.13L639.31 563.13L639.31 535.13zM736.31 227.13L760.56 241.13L760.56 269.13L736.31 283.13L712.06 269.13L712.06 241.13zM760.56 437.13L784.81 451.13L784.81 479.13L760.56 493.13L736.31 479.13L736.31 451.13zM809.06 17.13L833.31 31.13L833.31 59.13L809.06 73.13L784.81 59.13L784.81 31.13zM809.06 101.13L833.31 115.13L833.31 143.13L809.06 157.13L784.81 143.13L784.81 115.13zM784.81 227.13L809.06 241.13L809.06 269.13L784.81 283.13L760.56 269.13L760.56 241.13zM809.06 269.13L833.31 283.13L833.31 311.13L809.06 325.13L784.81 311.13L784.81 283.13zM833.31 -24.87L857.56 -10.87L857.56 17.13L833.31 31.13L809.06 17.13L809.06 -10.87zM833.31 59.13L857.56 73.13L857.56 101.13L833.31 115.13L809.06 101.13L809.06 73.13zM833.31 227.13L857.56 241.13L857.56 269.13L833.31 283.13L809.06 269.13L809.06 241.13zM857.56 269.13L881.81 283.13L881.81 311.13L857.56 325.13L833.31 311.13L833.31 283.13zM906.06 353.13L930.31 367.13L930.31 395.13L906.06 409.13L881.81 395.13L881.81 367.13zM930.31 227.13L954.56 241.13L954.56 269.13L930.31 283.13L906.06 269.13L906.06 241.13zM954.56 521.13L978.81 535.13L978.81 563.13L954.56 577.13L930.31 563.13L930.31 535.13zM978.81 -24.87L1003.06 -10.87L1003.06 17.13L978.81 31.13L954.56 17.13L954.56 -10.87zM978.81 227.13L1003.06 241.13L1003.06 269.13L978.81 283.13L954.56 269.13L954.56 241.13zM1027.3 227.13L1051.55 241.13L1051.55 269.13L1027.3 283.13L1003.06 269.13L1003.06 241.13zM1051.55 269.13L1075.8 283.13L1075.8 311.13L1051.55 325.13L1027.3 311.13L1027.3 283.13zM1051.55 353.13L1075.8 367.13L1075.8 395.13L1051.55 409.13L1027.3 395.13L1027.3 367.13zM1051.55 437.13L1075.8 451.13L1075.8 479.13L1051.55 493.13L1027.3 479.13L1027.3 451.13zM1075.8 59.13L1100.05 73.13L1100.05 101.13L1075.8 115.13L1051.55 101.13L1051.55 73.13zM1075.8 227.13L1100.05 241.13L1100.05 269.13L1075.8 283.13L1051.55 269.13L1051.55 241.13zM1148.55 185.13L1172.8 199.13L1172.8 227.13L1148.55 241.13L1124.3 227.13L1124.3 199.13zM1124.3 227.13L1148.55 241.13L1148.55 269.13L1124.3 283.13L1100.05 269.13L1100.05 241.13zM1124.3 479.13L1148.55 493.13L1148.55 521.13L1124.3 535.13L1100.05 521.13L1100.05 493.13zM1197.05 17.13L1221.3 31.13L1221.3 59.13L1197.05 73.13L1172.8 59.13L1172.8 31.13zM1197.05 437.13L1221.3 451.13L1221.3 479.13L1197.05 493.13L1172.8 479.13L1172.8 451.13zM1197.05 521.13L1221.3 535.13L1221.3 563.13L1197.05 577.13L1172.8 563.13L1172.8 535.13zM1245.55 17.13L1269.8 31.13L1269.8 59.13L1245.55 73.13L1221.3 59.13L1221.3 31.13zM1245.55 101.13L1269.8 115.13L1269.8 143.13L1245.55 157.13L1221.3 143.13L1221.3 115.13zM1245.55 185.13L1269.8 199.13L1269.8 227.13L1245.55 241.13L1221.3 227.13L1221.3 199.13zM1221.3 227.13L1245.55 241.13L1245.55 269.13L1221.3 283.13L1197.05 269.13L1197.05 241.13zM1221.3 311.13L1245.55 325.13L1245.55 353.13L1221.3 367.13L1197.05 353.13L1197.05 325.13zM1294.05 17.13L1318.3 31.13L1318.3 59.13L1294.05 73.13L1269.8 59.13L1269.8 31.13zM1269.8 311.13L1294.05 325.13L1294.05 353.13L1269.8 367.13L1245.55 353.13L1245.55 325.13zM1294.05 353.13L1318.3 367.13L1318.3 395.13L1294.05 409.13L1269.8 395.13L1269.8 367.13zM1342.55 185.13L1366.8 199.13L1366.8 227.13L1342.55 241.13L1318.3 227.13L1318.3 199.13zM1318.3 479.13L1342.55 493.13L1342.55 521.13L1318.3 535.13L1294.05 521.13L1294.05 493.13zM1391.05 185.13L1415.3 199.13L1415.3 227.13L1391.05 241.13L1366.8 227.13L1366.8 199.13zM1366.8 311.13L1391.05 325.13L1391.05 353.13L1366.8 367.13L1342.55 353.13L1342.55 325.13zM1439.54 17.13L1463.79 31.13L1463.79 59.13L1439.54 73.13L1415.3 59.13L1415.3 31.13z" stroke="rgba(202, 206, 210, 0.7)" stroke-width="2"></path></g><defs><mask id="SvgjsMask1022"><rect width="1440" height="560" fill="#ffffff"></rect></mask></defs></svg>