<svg xmlns="http://www.w3.org/2000/svg" version="1.1" xmlns:xlink="http://www.w3.org/1999/xlink" xmlns:svgjs="http://svgjs.com/svgjs" width="1440" height="560" preserveAspectRatio="none" viewBox="0 0 1440 560"><g mask="url(&quot;#SvgjsMask1008&quot;)" fill="none"><rect width="1440" height="560" x="0" y="0" fill="rgba(255, 4, 4, 1)"></rect><path d="M-108.44 517.15L-108.44 517.15" stroke="rgba(255, 255, 255, 0)" stroke-width="1.5"></path><path d="M-108.44 517.15L-106.51 671.33" stroke="rgba(255, 255, 255, 0)" stroke-width="1.5"></path><path d="M-108.44 517.15L87.48 537.45" stroke="rgba(255, 255, 255, 0)" stroke-width="1.5"></path><path d="M-108.44 517.15L68.05 652.85" stroke="rgba(255, 255, 255, 0)" stroke-width="1.5"></path><path d="M-108.44 517.15L94.94 354.65" stroke="rgba(255, 255, 255, 0)" stroke-width="1.5"></path><path d="M-108.44 517.15L209.13 645.78" stroke="rgba(255, 255, 255, 0)" stroke-width="1.5"></path><path d="M-106.51 671.33L-106.51 671.33" stroke="rgba(255, 255, 255, 0)" stroke-width="1.5"></path><path d="M-106.51 671.33L68.05 652.85" stroke="rgba(255, 255, 255, 0)" stroke-width="1.5"></path><path d="M-106.51 671.33L87.48 537.45" stroke="rgba(255, 255, 255, 0)" stroke-width="1.5"></path><path d="M-106.51 671.33L209.13 645.78" stroke="rgba(255, 255, 255, 0)" stroke-width="1.5"></path><path d="M-106.51 671.33L94.94 354.65" stroke="rgba(255, 255, 255, 0)" stroke-width="1.5"></path><path d="M-106.51 671.33L233.91 498.64" stroke="rgba(255, 255, 255, 0)" stroke-width="1.5"></path><path d="M94.94 354.65L94.94 354.65" stroke="rgba(255, 255, 255, 0)" stroke-width="1.5"></path><path d="M94.94 354.65L198.19 343.53" stroke="rgba(255, 255, 255, 0)" stroke-width="1.5"></path><path d="M94.94 354.65L87.48 537.45" stroke="rgba(255, 255, 255, 0)" stroke-width="1.5"></path><path d="M94.94 354.65L233.91 498.64" stroke="rgba(255, 255, 255, 0)" stroke-width="1.5"></path><path d="M87.48 537.45L87.48 537.45" stroke="rgba(255, 255, 255, 0)" stroke-width="1.5"></path><path d="M87.48 537.45L68.05 652.85" stroke="rgba(255, 255, 255, 0)" stroke-width="1.5"></path><path d="M87.48 537.45L233.91 498.64" stroke="rgba(255, 255, 255, 0)" stroke-width="1.5"></path><path d="M87.48 537.45L209.13 645.78" stroke="rgba(255, 255, 255, 0)" stroke-width="1.5"></path><path d="M68.05 652.85L68.05 652.85" stroke="rgba(255, 255, 255, 0)" stroke-width="1.5"></path><path d="M68.05 652.85L209.13 645.78" stroke="rgba(255, 255, 255, 0)" stroke-width="1.5"></path><path d="M68.05 652.85L233.91 498.64" stroke="rgba(255, 255, 255, 0)" stroke-width="1.5"></path><path d="M198.19 343.53L198.19 343.53" stroke="rgba(255, 255, 255, 0)" stroke-width="1.5"></path><path d="M198.19 343.53L233.91 498.64" stroke="rgba(255, 255, 255, 0)" stroke-width="1.5"></path><path d="M198.19 343.53L87.48 537.45" stroke="rgba(255, 255, 255, 0)" stroke-width="1.5"></path><path d="M198.19 343.53L410.99 497.26" stroke="rgba(255, 255, 255, 0)" stroke-width="1.5"></path><path d="M198.19 343.53L209.13 645.78" stroke="rgba(255, 255, 255, 0)" stroke-width="1.5"></path><path d="M198.19 343.53L68.05 652.85" stroke="rgba(255, 255, 255, 0)" stroke-width="1.5"></path><path d="M233.91 498.64L233.91 498.64" stroke="rgba(255, 255, 255, 0)" stroke-width="1.5"></path><path d="M233.91 498.64L209.13 645.78" stroke="rgba(255, 255, 255, 0)" stroke-width="1.5"></path><path d="M233.91 498.64L410.99 497.26" stroke="rgba(255, 255, 255, 0)" stroke-width="1.5"></path><path d="M209.13 645.78L209.13 645.78" stroke="rgba(255, 255, 255, 0)" stroke-width="1.5"></path><path d="M209.13 645.78L410.99 497.26" stroke="rgba(255, 255, 255, 0)" stroke-width="1.5"></path><path d="M410.99 497.26L410.99 497.26" stroke="rgba(255, 255, 255, 0)" stroke-width="1.5"></path><path d="M410.99 497.26L526.51 495.61" stroke="rgba(255, 255, 255, 0)" stroke-width="1.5"></path><path d="M526.51 495.61L526.51 495.61" stroke="rgba(255, 255, 255, 0)" stroke-width="1.5"></path><path d="M526.51 495.61L641.64 369.33" stroke="rgba(255, 255, 255, 0)" stroke-width="1.5"></path><path d="M526.51 495.61L538.81 707.26" stroke="rgba(255, 255, 255, 0)" stroke-width="1.5"></path><path d="M526.51 495.61L699.6 692.51" stroke="rgba(255, 255, 255, 0)" stroke-width="1.5"></path><path d="M526.51 495.61L233.91 498.64" stroke="rgba(255, 255, 255, 0)" stroke-width="1.5"></path><path d="M526.51 495.61L789.03 695.46" stroke="rgba(255, 255, 255, 0)" stroke-width="1.5"></path><path d="M538.81 707.26L538.81 707.26" stroke="rgba(255, 255, 255, 0)" stroke-width="1.5"></path><path d="M538.81 707.26L699.6 692.51" stroke="rgba(255, 255, 255, 0)" stroke-width="1.5"></path><path d="M538.81 707.26L410.99 497.26" stroke="rgba(255, 255, 255, 0)" stroke-width="1.5"></path><path d="M703.34 205.32L703.34 205.32" stroke="rgba(255, 255, 255, 0)" stroke-width="1.5"></path><path d="M703.34 205.32L807.47 225.33" stroke="rgba(255, 255, 255, 0)" stroke-width="1.5"></path><path d="M703.34 205.32L816.27 111.18" stroke="rgba(255, 255, 255, 0)" stroke-width="1.5"></path><path d="M703.34 205.32L641.64 369.33" stroke="rgba(255, 255, 255, 0)" stroke-width="1.5"></path><path d="M703.34 205.32L960.77 191.79" stroke="rgba(255, 255, 255, 0)" stroke-width="1.5"></path><path d="M703.34 205.32L965.87 102.96" stroke="rgba(255, 255, 255, 0)" stroke-width="1.5"></path><path d="M641.64 369.33L641.64 369.33" stroke="rgba(255, 255, 255, 0)" stroke-width="1.5"></path><path d="M641.64 369.33L807.47 225.33" stroke="rgba(255, 255, 255, 0)" stroke-width="1.5"></path><path d="M641.64 369.33L410.99 497.26" stroke="rgba(255, 255, 255, 0)" stroke-width="1.5"></path><path d="M699.6 692.51L699.6 692.51" stroke="rgba(255, 255, 255, 0)" stroke-width="1.5"></path><path d="M699.6 692.51L789.03 695.46" stroke="rgba(255, 255, 255, 0)" stroke-width="1.5"></path><path d="M699.6 692.51L997.37 690.51" stroke="rgba(255, 255, 255, 0)" stroke-width="1.5"></path><path d="M699.6 692.51L965.03 548.76" stroke="rgba(255, 255, 255, 0)" stroke-width="1.5"></path><path d="M816.27 111.18L816.27 111.18" stroke="rgba(255, 255, 255, 0)" stroke-width="1.5"></path><path d="M816.27 111.18L807.47 225.33" stroke="rgba(255, 255, 255, 0)" stroke-width="1.5"></path><path d="M816.27 111.18L965.87 102.96" stroke="rgba(255, 255, 255, 0)" stroke-width="1.5"></path><path d="M816.27 111.18L960.77 191.79" stroke="rgba(255, 255, 255, 0)" stroke-width="1.5"></path><path d="M816.27 111.18L944.78 -58.45" stroke="rgba(255, 255, 255, 0)" stroke-width="1.5"></path><path d="M807.47 225.33L807.47 225.33" stroke="rgba(255, 255, 255, 0)" stroke-width="1.5"></path><path d="M807.47 225.33L960.77 191.79" stroke="rgba(255, 255, 255, 0)" stroke-width="1.5"></path><path d="M789.03 695.46L789.03 695.46" stroke="rgba(255, 255, 255, 0)" stroke-width="1.5"></path><path d="M944.78 -58.45L944.78 -58.45" stroke="rgba(255, 255, 255, 0)" stroke-width="1.5"></path><path d="M944.78 -58.45L965.87 102.96" stroke="rgba(255, 255, 255, 0)" stroke-width="1.5"></path><path d="M944.78 -58.45L1141.76 -69.27" stroke="rgba(255, 255, 255, 0)" stroke-width="1.5"></path><path d="M965.87 102.96L965.87 102.96" stroke="rgba(255, 255, 255, 0)" stroke-width="1.5"></path><path d="M965.87 102.96L960.77 191.79" stroke="rgba(255, 255, 255, 0)" stroke-width="1.5"></path><path d="M965.87 102.96L1125.82 61.62" stroke="rgba(255, 255, 255, 0)" stroke-width="1.5"></path><path d="M965.87 102.96L1124.62 195.64" stroke="rgba(255, 255, 255, 0)" stroke-width="1.5"></path><path d="M965.87 102.96L807.47 225.33" stroke="rgba(255, 255, 255, 0)" stroke-width="1.5"></path><path d="M960.77 191.79L960.77 191.79" stroke="rgba(255, 255, 255, 0)" stroke-width="1.5"></path><path d="M966.18 364.29L966.18 364.29" stroke="rgba(255, 255, 255, 0)" stroke-width="1.5"></path><path d="M966.18 364.29L960.77 191.79" stroke="rgba(255, 255, 255, 0)" stroke-width="1.5"></path><path d="M966.18 364.29L965.03 548.76" stroke="rgba(255, 255, 255, 0)" stroke-width="1.5"></path><path d="M966.18 364.29L1160.08 370.29" stroke="rgba(255, 255, 255, 0)" stroke-width="1.5"></path><path d="M966.18 364.29L807.47 225.33" stroke="rgba(255, 255, 255, 0)" stroke-width="1.5"></path><path d="M966.18 364.29L1124.62 195.64" stroke="rgba(255, 255, 255, 0)" stroke-width="1.5"></path><path d="M966.18 364.29L1154.91 502.95" stroke="rgba(255, 255, 255, 0)" stroke-width="1.5"></path><path d="M965.03 548.76L965.03 548.76" stroke="rgba(255, 255, 255, 0)" stroke-width="1.5"></path><path d="M965.03 548.76L997.37 690.51" stroke="rgba(255, 255, 255, 0)" stroke-width="1.5"></path><path d="M965.03 548.76L1154.91 502.95" stroke="rgba(255, 255, 255, 0)" stroke-width="1.5"></path><path d="M997.37 690.51L997.37 690.51" stroke="rgba(255, 255, 255, 0)" stroke-width="1.5"></path><path d="M997.37 690.51L1147.92 678.89" stroke="rgba(255, 255, 255, 0)" stroke-width="1.5"></path><path d="M997.37 690.51L789.03 695.46" stroke="rgba(255, 255, 255, 0)" stroke-width="1.5"></path><path d="M997.37 690.51L1154.91 502.95" stroke="rgba(255, 255, 255, 0)" stroke-width="1.5"></path><path d="M1141.76 -69.27L1141.76 -69.27" stroke="rgba(255, 255, 255, 0)" stroke-width="1.5"></path><path d="M1141.76 -69.27L1125.82 61.62" stroke="rgba(255, 255, 255, 0)" stroke-width="1.5"></path><path d="M1141.76 -69.27L1296.62 -110.79" stroke="rgba(255, 255, 255, 0)" stroke-width="1.5"></path><path d="M1141.76 -69.27L1278.38 63.93" stroke="rgba(255, 255, 255, 0)" stroke-width="1.5"></path><path d="M1141.76 -69.27L965.87 102.96" stroke="rgba(255, 255, 255, 0)" stroke-width="1.5"></path><path d="M1125.82 61.62L1125.82 61.62" stroke="rgba(255, 255, 255, 0)" stroke-width="1.5"></path><path d="M1125.82 61.62L1124.62 195.64" stroke="rgba(255, 255, 255, 0)" stroke-width="1.5"></path><path d="M1125.82 61.62L1278.38 63.93" stroke="rgba(255, 255, 255, 0)" stroke-width="1.5"></path><path d="M1124.62 195.64L1124.62 195.64" stroke="rgba(255, 255, 255, 0)" stroke-width="1.5"></path><path d="M1124.62 195.64L1280.7 190.26" stroke="rgba(255, 255, 255, 0)" stroke-width="1.5"></path><path d="M1124.62 195.64L960.77 191.79" stroke="rgba(255, 255, 255, 0)" stroke-width="1.5"></path><path d="M1124.62 195.64L1160.08 370.29" stroke="rgba(255, 255, 255, 0)" stroke-width="1.5"></path><path d="M1160.08 370.29L1160.08 370.29" stroke="rgba(255, 255, 255, 0)" stroke-width="1.5"></path><path d="M1160.08 370.29L1246.94 409.92" stroke="rgba(255, 255, 255, 0)" stroke-width="1.5"></path><path d="M1160.08 370.29L1154.91 502.95" stroke="rgba(255, 255, 255, 0)" stroke-width="1.5"></path><path d="M1154.91 502.95L1154.91 502.95" stroke="rgba(255, 255, 255, 0)" stroke-width="1.5"></path><path d="M1154.91 502.95L1254.62 533.61" stroke="rgba(255, 255, 255, 0)" stroke-width="1.5"></path><path d="M1154.91 502.95L1246.94 409.92" stroke="rgba(255, 255, 255, 0)" stroke-width="1.5"></path><path d="M1154.91 502.95L1147.92 678.89" stroke="rgba(255, 255, 255, 0)" stroke-width="1.5"></path><path d="M1154.91 502.95L1308.03 679.47" stroke="rgba(255, 255, 255, 0)" stroke-width="1.5"></path><path d="M1147.92 678.89L1147.92 678.89" stroke="rgba(255, 255, 255, 0)" stroke-width="1.5"></path><path d="M1147.92 678.89L1308.03 679.47" stroke="rgba(255, 255, 255, 0)" stroke-width="1.5"></path><path d="M1147.92 678.89L1254.62 533.61" stroke="rgba(255, 255, 255, 0)" stroke-width="1.5"></path><path d="M1147.92 678.89L965.03 548.76" stroke="rgba(255, 255, 255, 0)" stroke-width="1.5"></path><path d="M1296.62 -110.79L1296.62 -110.79" stroke="rgba(255, 255, 255, 0)" stroke-width="1.5"></path><path d="M1296.62 -110.79L1427.81 -82.08" stroke="rgba(255, 255, 255, 0)" stroke-width="1.5"></path><path d="M1296.62 -110.79L1278.38 63.93" stroke="rgba(255, 255, 255, 0)" stroke-width="1.5"></path><path d="M1296.62 -110.79L1447.57 66.68" stroke="rgba(255, 255, 255, 0)" stroke-width="1.5"></path><path d="M1278.38 63.93L1278.38 63.93" stroke="rgba(255, 255, 255, 0)" stroke-width="1.5"></path><path d="M1278.38 63.93L1280.7 190.26" stroke="rgba(255, 255, 255, 0)" stroke-width="1.5"></path><path d="M1278.38 63.93L1447.57 66.68" stroke="rgba(255, 255, 255, 0)" stroke-width="1.5"></path><path d="M1280.7 190.26L1280.7 190.26" stroke="rgba(255, 255, 255, 0)" stroke-width="1.5"></path><path d="M1280.7 190.26L1449.3 210.23" stroke="rgba(255, 255, 255, 0)" stroke-width="1.5"></path><path d="M1246.94 409.92L1246.94 409.92" stroke="rgba(255, 255, 255, 0)" stroke-width="1.5"></path><path d="M1246.94 409.92L1254.62 533.61" stroke="rgba(255, 255, 255, 0)" stroke-width="1.5"></path><path d="M1246.94 409.92L1416.69 403.34" stroke="rgba(255, 255, 255, 0)" stroke-width="1.5"></path><path d="M1246.94 409.92L1446.81 505.53" stroke="rgba(255, 255, 255, 0)" stroke-width="1.5"></path><path d="M1246.94 409.92L1280.7 190.26" stroke="rgba(255, 255, 255, 0)" stroke-width="1.5"></path><path d="M1254.62 533.61L1254.62 533.61" stroke="rgba(255, 255, 255, 0)" stroke-width="1.5"></path><path d="M1254.62 533.61L1308.03 679.47" stroke="rgba(255, 255, 255, 0)" stroke-width="1.5"></path><path d="M1254.62 533.61L1389.76 665.04" stroke="rgba(255, 255, 255, 0)" stroke-width="1.5"></path><path d="M1308.03 679.47L1308.03 679.47" stroke="rgba(255, 255, 255, 0)" stroke-width="1.5"></path><path d="M1308.03 679.47L1389.76 665.04" stroke="rgba(255, 255, 255, 0)" stroke-width="1.5"></path><path d="M1427.81 -82.08L1427.81 -82.08" stroke="rgba(255, 255, 255, 0)" stroke-width="1.5"></path><path d="M1427.81 -82.08L1447.57 66.68" stroke="rgba(255, 255, 255, 0)" stroke-width="1.5"></path><path d="M1447.57 66.68L1447.57 66.68" stroke="rgba(255, 255, 255, 0)" stroke-width="1.5"></path><path d="M1447.57 66.68L1551.6 94.93" stroke="rgba(255, 255, 255, 0)" stroke-width="1.5"></path><path d="M1447.57 66.68L1449.3 210.23" stroke="rgba(255, 255, 255, 0)" stroke-width="1.5"></path><path d="M1447.57 66.68L1599.92 -38.71" stroke="rgba(255, 255, 255, 0)" stroke-width="1.5"></path><path d="M1449.3 210.23L1449.3 210.23" stroke="rgba(255, 255, 255, 0)" stroke-width="1.5"></path><path d="M1449.3 210.23L1540.67 254.88" stroke="rgba(255, 255, 255, 0)" stroke-width="1.5"></path><path d="M1416.69 403.34L1416.69 403.34" stroke="rgba(255, 255, 255, 0)" stroke-width="1.5"></path><path d="M1416.69 403.34L1446.81 505.53" stroke="rgba(255, 255, 255, 0)" stroke-width="1.5"></path><path d="M1446.81 505.53L1446.81 505.53" stroke="rgba(255, 255, 255, 0)" stroke-width="1.5"></path><path d="M1446.81 505.53L1538.13 506.47" stroke="rgba(255, 255, 255, 0)" stroke-width="1.5"></path><path d="M1446.81 505.53L1547.95 375.19" stroke="rgba(255, 255, 255, 0)" stroke-width="1.5"></path><path d="M1446.81 505.53L1389.76 665.04" stroke="rgba(255, 255, 255, 0)" stroke-width="1.5"></path><path d="M1446.81 505.53L1254.62 533.61" stroke="rgba(255, 255, 255, 0)" stroke-width="1.5"></path><path d="M1446.81 505.53L1545.46 700.9" stroke="rgba(255, 255, 255, 0)" stroke-width="1.5"></path><path d="M1389.76 665.04L1389.76 665.04" stroke="rgba(255, 255, 255, 0)" stroke-width="1.5"></path><path d="M1389.76 665.04L1545.46 700.9" stroke="rgba(255, 255, 255, 0)" stroke-width="1.5"></path><path d="M1599.92 -38.71L1599.92 -38.71" stroke="rgba(255, 255, 255, 0)" stroke-width="1.5"></path><path d="M1599.92 -38.71L1551.6 94.93" stroke="rgba(255, 255, 255, 0)" stroke-width="1.5"></path><path d="M1599.92 -38.71L1427.81 -82.08" stroke="rgba(255, 255, 255, 0)" stroke-width="1.5"></path><path d="M1599.92 -38.71L1449.3 210.23" stroke="rgba(255, 255, 255, 0)" stroke-width="1.5"></path><path d="M1599.92 -38.71L1540.67 254.88" stroke="rgba(255, 255, 255, 0)" stroke-width="1.5"></path><path d="M1599.92 -38.71L1296.62 -110.79" stroke="rgba(255, 255, 255, 0)" stroke-width="1.5"></path><path d="M1551.6 94.93L1551.6 94.93" stroke="rgba(255, 255, 255, 0)" stroke-width="1.5"></path><path d="M1551.6 94.93L1449.3 210.23" stroke="rgba(255, 255, 255, 0)" stroke-width="1.5"></path><path d="M1551.6 94.93L1540.67 254.88" stroke="rgba(255, 255, 255, 0)" stroke-width="1.5"></path><path d="M1540.67 254.88L1540.67 254.88" stroke="rgba(255, 255, 255, 0)" stroke-width="1.5"></path><path d="M1540.67 254.88L1547.95 375.19" stroke="rgba(255, 255, 255, 0)" stroke-width="1.5"></path><path d="M1540.67 254.88L1416.69 403.34" stroke="rgba(255, 255, 255, 0)" stroke-width="1.5"></path><path d="M1540.67 254.88L1447.57 66.68" stroke="rgba(255, 255, 255, 0)" stroke-width="1.5"></path><path d="M1547.95 375.19L1547.95 375.19" stroke="rgba(255, 255, 255, 0)" stroke-width="1.5"></path><path d="M1547.95 375.19L1538.13 506.47" stroke="rgba(255, 255, 255, 0)" stroke-width="1.5"></path><path d="M1547.95 375.19L1416.69 403.34" stroke="rgba(255, 255, 255, 0)" stroke-width="1.5"></path><path d="M1538.13 506.47L1538.13 506.47" stroke="rgba(255, 255, 255, 0)" stroke-width="1.5"></path><path d="M1545.46 700.9L1545.46 700.9" stroke="rgba(255, 255, 255, 0)" stroke-width="1.5"></path><path d="M1545.46 700.9L1538.13 506.47" stroke="rgba(255, 255, 255, 0)" stroke-width="1.5"></path><path d="M1545.46 700.9L1308.03 679.47" stroke="rgba(255, 255, 255, 0)" stroke-width="1.5"></path><path d="M1545.46 700.9L1416.69 403.34" stroke="rgba(255, 255, 255, 0)" stroke-width="1.5"></path><path d="M1545.46 700.9L1547.95 375.19" stroke="rgba(255, 255, 255, 0)" stroke-width="1.5"></path><circle r="5" cx="-108.44" cy="517.15" fill="rgba(255, 255, 255, 0)"></circle><circle r="5" cx="-106.51" cy="671.33" fill="rgba(255, 255, 255, 0)"></circle><circle r="5" cx="94.94" cy="354.65" fill="rgba(255, 255, 255, 0)"></circle><circle r="5" cx="87.48" cy="537.45" fill="rgba(255, 255, 255, 0)"></circle><circle r="5" cx="68.05" cy="652.85" fill="rgba(255, 255, 255, 0)"></circle><circle r="5" cx="198.19" cy="343.53" fill="rgba(255, 255, 255, 0)"></circle><circle r="5" cx="233.91" cy="498.64" fill="rgba(255, 255, 255, 0)"></circle><circle r="5" cx="209.13" cy="645.78" fill="rgba(255, 255, 255, 0)"></circle><circle r="5" cx="410.99" cy="497.26" fill="rgba(255, 255, 255, 0)"></circle><circle r="5" cx="526.51" cy="495.61" fill="rgba(255, 255, 255, 0)"></circle><circle r="5" cx="538.81" cy="707.26" fill="rgba(255, 255, 255, 0)"></circle><circle r="5" cx="703.34" cy="205.32" fill="rgba(255, 255, 255, 0)"></circle><circle r="5" cx="641.64" cy="369.33" fill="rgba(255, 255, 255, 0)"></circle><circle r="5" cx="699.6" cy="692.51" fill="rgba(255, 255, 255, 0)"></circle><circle r="5" cx="816.27" cy="111.18" fill="rgba(255, 255, 255, 0)"></circle><circle r="5" cx="807.47" cy="225.33" fill="rgba(255, 255, 255, 0)"></circle><circle r="5" cx="789.03" cy="695.46" fill="rgba(255, 255, 255, 0)"></circle><circle r="5" cx="944.78" cy="-58.45" fill="rgba(255, 255, 255, 0)"></circle><circle r="5" cx="965.87" cy="102.96" fill="rgba(255, 255, 255, 0)"></circle><circle r="5" cx="960.77" cy="191.79" fill="rgba(255, 255, 255, 0)"></circle><circle r="5" cx="966.18" cy="364.29" fill="rgba(255, 255, 255, 0)"></circle><circle r="5" cx="965.03" cy="548.76" fill="rgba(255, 255, 255, 0)"></circle><circle r="5" cx="997.37" cy="690.51" fill="rgba(255, 255, 255, 0)"></circle><circle r="5" cx="1141.76" cy="-69.27" fill="rgba(255, 255, 255, 0)"></circle><circle r="5" cx="1125.82" cy="61.62" fill="rgba(255, 255, 255, 0)"></circle><circle r="5" cx="1124.62" cy="195.64" fill="rgba(255, 255, 255, 0)"></circle><circle r="5" cx="1160.08" cy="370.29" fill="rgba(255, 255, 255, 0)"></circle><circle r="5" cx="1154.91" cy="502.95" fill="rgba(255, 255, 255, 0)"></circle><circle r="5" cx="1147.92" cy="678.89" fill="rgba(255, 255, 255, 0)"></circle><circle r="5" cx="1296.62" cy="-110.79" fill="rgba(255, 255, 255, 0)"></circle><circle r="5" cx="1278.38" cy="63.93" fill="rgba(255, 255, 255, 0)"></circle><circle r="5" cx="1280.7" cy="190.26" fill="rgba(255, 255, 255, 0)"></circle><circle r="5" cx="1246.94" cy="409.92" fill="rgba(255, 255, 255, 0)"></circle><circle r="5" cx="1254.62" cy="533.61" fill="rgba(255, 255, 255, 0)"></circle><circle r="5" cx="1308.03" cy="679.47" fill="rgba(255, 255, 255, 0)"></circle><circle r="5" cx="1427.81" cy="-82.08" fill="rgba(255, 255, 255, 0)"></circle><circle r="5" cx="1447.57" cy="66.68" fill="rgba(255, 255, 255, 0)"></circle><circle r="5" cx="1449.3" cy="210.23" fill="rgba(255, 255, 255, 0)"></circle><circle r="5" cx="1416.69" cy="403.34" fill="rgba(255, 255, 255, 0)"></circle><circle r="5" cx="1446.81" cy="505.53" fill="rgba(255, 255, 255, 0)"></circle><circle r="5" cx="1389.76" cy="665.04" fill="rgba(255, 255, 255, 0)"></circle><circle r="5" cx="1599.92" cy="-38.71" fill="rgba(255, 255, 255, 0)"></circle><circle r="5" cx="1551.6" cy="94.93" fill="rgba(255, 255, 255, 0)"></circle><circle r="5" cx="1540.67" cy="254.88" fill="rgba(255, 255, 255, 0)"></circle><circle r="5" cx="1547.95" cy="375.19" fill="rgba(255, 255, 255, 0)"></circle><circle r="5" cx="1538.13" cy="506.47" fill="rgba(255, 255, 255, 0)"></circle><circle r="5" cx="1545.46" cy="700.9" fill="rgba(255, 255, 255, 0)"></circle><path d="M699.6 405.95L699.6 405.95" stroke="hsl(0, 0%, 100%)" stroke-width="1.5"></path><path d="M699.6 405.95L797.58 353.45" stroke="hsl(0, 0%, 100%)" stroke-width="1.5"></path><path d="M699.6 405.95L832.2 557.08" stroke="hsl(0, 0%, 100%)" stroke-width="1.5"></path><path d="M699.6 405.95L495.45 540.33" stroke="hsl(0, 0%, 100%)" stroke-width="1.5"></path><path d="M699.6 405.95L841.79 644.83" stroke="hsl(0, 0%, 100%)" stroke-width="1.5"></path><path d="M699.6 405.95L977.54 389.94" stroke="hsl(0, 0%, 100%)" stroke-width="1.5"></path><path d="M699.6 405.95L969.94 514.26" stroke="hsl(0, 0%, 100%)" stroke-width="1.5"></path><path d="M841.79 644.83L841.79 644.83" stroke="hsl(0, 0%, 100%)" stroke-width="1.5"></path><path d="M841.79 644.83L832.2 557.08" stroke="hsl(0, 0%, 100%)" stroke-width="1.5"></path><path d="M841.79 644.83L693.97 702.47" stroke="hsl(0, 0%, 100%)" stroke-width="1.5"></path><path d="M841.79 644.83L969.94 514.26" stroke="hsl(0, 0%, 100%)" stroke-width="1.5"></path><path d="M841.79 644.83L1094.56 646.24" stroke="hsl(0, 0%, 100%)" stroke-width="1.5"></path><path d="M841.79 644.83L977.54 389.94" stroke="hsl(0, 0%, 100%)" stroke-width="1.5"></path><path d="M1124.31 540.02L1124.31 540.02" stroke="hsl(0, 0%, 100%)" stroke-width="1.5"></path><path d="M1124.31 540.02L1094.56 646.24" stroke="hsl(0, 0%, 100%)" stroke-width="1.5"></path><path d="M1124.31 540.02L1110.83 400.36" stroke="hsl(0, 0%, 100%)" stroke-width="1.5"></path><path d="M1124.31 540.02L1270.42 517.02" stroke="hsl(0, 0%, 100%)" stroke-width="1.5"></path><path d="M1124.31 540.02L969.94 514.26" stroke="hsl(0, 0%, 100%)" stroke-width="1.5"></path><path d="M1124.31 540.02L1274.09 405.39" stroke="hsl(0, 0%, 100%)" stroke-width="1.5"></path><path d="M1270.42 517.02L1270.42 517.02" stroke="hsl(0, 0%, 100%)" stroke-width="1.5"></path><path d="M1270.42 517.02L1274.09 405.39" stroke="hsl(0, 0%, 100%)" stroke-width="1.5"></path><path d="M1270.42 517.02L1408.42 536.94" stroke="hsl(0, 0%, 100%)" stroke-width="1.5"></path><path d="M1270.42 517.02L1308.87 669.88" stroke="hsl(0, 0%, 100%)" stroke-width="1.5"></path><path d="M1270.42 517.02L1110.83 400.36" stroke="hsl(0, 0%, 100%)" stroke-width="1.5"></path><path d="M1270.42 517.02L1406.09 364.57" stroke="hsl(0, 0%, 100%)" stroke-width="1.5"></path><path d="M1408.42 536.94L1408.42 536.94" stroke="hsl(0, 0%, 100%)" stroke-width="1.5"></path><path d="M1408.42 536.94L1549.71 494.5" stroke="hsl(0, 0%, 100%)" stroke-width="1.5"></path><path d="M1408.42 536.94L1308.87 669.88" stroke="hsl(0, 0%, 100%)" stroke-width="1.5"></path><path d="M1408.42 536.94L1390.3 706.78" stroke="hsl(0, 0%, 100%)" stroke-width="1.5"></path><path d="M1408.42 536.94L1406.09 364.57" stroke="hsl(0, 0%, 100%)" stroke-width="1.5"></path><path d="M1408.42 536.94L1554.89 642.34" stroke="hsl(0, 0%, 100%)" stroke-width="1.5"></path><path d="M1594.63 -83.45L1594.63 -83.45" stroke="hsl(0, 0%, 100%)" stroke-width="1.5"></path><path d="M1594.63 -83.45L1548.34 79.58" stroke="hsl(0, 0%, 100%)" stroke-width="1.5"></path><path d="M1594.63 -83.45L1404.95 -42.04" stroke="hsl(0, 0%, 100%)" stroke-width="1.5"></path><path d="M1594.63 -83.45L1430.88 108.63" stroke="hsl(0, 0%, 100%)" stroke-width="1.5"></path><path d="M1553.83 396.18L1553.83 396.18" stroke="hsl(0, 0%, 100%)" stroke-width="1.5"></path><path d="M1553.83 396.18L1549.71 494.5" stroke="hsl(0, 0%, 100%)" stroke-width="1.5"></path><path d="M1553.83 396.18L1406.09 364.57" stroke="hsl(0, 0%, 100%)" stroke-width="1.5"></path><path d="M1553.83 396.18L1408.42 536.94" stroke="hsl(0, 0%, 100%)" stroke-width="1.5"></path><path d="M1553.83 396.18L1431.77 231.24" stroke="hsl(0, 0%, 100%)" stroke-width="1.5"></path><path d="M1553.83 396.18L1569.19 191.52" stroke="hsl(0, 0%, 100%)" stroke-width="1.5"></path><path d="M-83.29 490.96L-83.29 490.96" stroke="hsl(0, 0%, 100%)" stroke-width="1.5"></path><path d="M-83.29 490.96L66.85 551.4" stroke="hsl(0, 0%, 100%)" stroke-width="1.5"></path><path d="M-83.29 490.96L-89.63 670.5" stroke="hsl(0, 0%, 100%)" stroke-width="1.5"></path><path d="M-83.29 490.96L98.85 642.99" stroke="hsl(0, 0%, 100%)" stroke-width="1.5"></path><path d="M-83.29 490.96L189.48 683.73" stroke="hsl(0, 0%, 100%)" stroke-width="1.5"></path><path d="M-83.29 490.96L254.7 488.31" stroke="hsl(0, 0%, 100%)" stroke-width="1.5"></path><path d="M-89.63 670.5L-89.63 670.5" stroke="hsl(0, 0%, 100%)" stroke-width="1.5"></path><path d="M-89.63 670.5L98.85 642.99" stroke="hsl(0, 0%, 100%)" stroke-width="1.5"></path><path d="M-89.63 670.5L66.85 551.4" stroke="hsl(0, 0%, 100%)" stroke-width="1.5"></path><path d="M-89.63 670.5L189.48 683.73" stroke="hsl(0, 0%, 100%)" stroke-width="1.5"></path><path d="M-89.63 670.5L254.7 488.31" stroke="hsl(0, 0%, 100%)" stroke-width="1.5"></path><path d="M66.85 551.4L66.85 551.4" stroke="hsl(0, 0%, 100%)" stroke-width="1.5"></path><path d="M66.85 551.4L98.85 642.99" stroke="hsl(0, 0%, 100%)" stroke-width="1.5"></path><path d="M66.85 551.4L189.48 683.73" stroke="hsl(0, 0%, 100%)" stroke-width="1.5"></path><path d="M98.85 642.99L98.85 642.99" stroke="hsl(0, 0%, 100%)" stroke-width="1.5"></path><path d="M98.85 642.99L189.48 683.73" stroke="hsl(0, 0%, 100%)" stroke-width="1.5"></path><path d="M98.85 642.99L254.7 488.31" stroke="hsl(0, 0%, 100%)" stroke-width="1.5"></path><path d="M254.7 488.31L254.7 488.31" stroke="hsl(0, 0%, 100%)" stroke-width="1.5"></path><path d="M254.7 488.31L353.36 488.56" stroke="hsl(0, 0%, 100%)" stroke-width="1.5"></path><path d="M254.7 488.31L66.85 551.4" stroke="hsl(0, 0%, 100%)" stroke-width="1.5"></path><path d="M254.7 488.31L189.48 683.73" stroke="hsl(0, 0%, 100%)" stroke-width="1.5"></path><path d="M254.7 488.31L339.94 691.64" stroke="hsl(0, 0%, 100%)" stroke-width="1.5"></path><path d="M254.7 488.31L495.45 540.33" stroke="hsl(0, 0%, 100%)" stroke-width="1.5"></path><path d="M189.48 683.73L189.48 683.73" stroke="hsl(0, 0%, 100%)" stroke-width="1.5"></path><path d="M189.48 683.73L339.94 691.64" stroke="hsl(0, 0%, 100%)" stroke-width="1.5"></path><path d="M189.48 683.73L353.36 488.56" stroke="hsl(0, 0%, 100%)" stroke-width="1.5"></path><path d="M353.36 488.56L353.36 488.56" stroke="hsl(0, 0%, 100%)" stroke-width="1.5"></path><path d="M353.36 488.56L495.45 540.33" stroke="hsl(0, 0%, 100%)" stroke-width="1.5"></path><path d="M339.94 691.64L339.94 691.64" stroke="hsl(0, 0%, 100%)" stroke-width="1.5"></path><path d="M339.94 691.64L353.36 488.56" stroke="hsl(0, 0%, 100%)" stroke-width="1.5"></path><path d="M339.94 691.64L548.47 691.77" stroke="hsl(0, 0%, 100%)" stroke-width="1.5"></path><path d="M339.94 691.64L495.45 540.33" stroke="hsl(0, 0%, 100%)" stroke-width="1.5"></path><path d="M495.45 540.33L495.45 540.33" stroke="hsl(0, 0%, 100%)" stroke-width="1.5"></path><path d="M495.45 540.33L548.47 691.77" stroke="hsl(0, 0%, 100%)" stroke-width="1.5"></path><path d="M548.47 691.77L548.47 691.77" stroke="hsl(0, 0%, 100%)" stroke-width="1.5"></path><path d="M548.47 691.77L693.97 702.47" stroke="hsl(0, 0%, 100%)" stroke-width="1.5"></path><path d="M548.47 691.77L353.36 488.56" stroke="hsl(0, 0%, 100%)" stroke-width="1.5"></path><path d="M693.97 702.47L693.97 702.47" stroke="hsl(0, 0%, 100%)" stroke-width="1.5"></path><path d="M693.97 702.47L832.2 557.08" stroke="hsl(0, 0%, 100%)" stroke-width="1.5"></path><path d="M693.97 702.47L495.45 540.33" stroke="hsl(0, 0%, 100%)" stroke-width="1.5"></path><path d="M693.97 702.47L699.6 405.95" stroke="hsl(0, 0%, 100%)" stroke-width="1.5"></path><path d="M797.58 353.45L797.58 353.45" stroke="hsl(0, 0%, 100%)" stroke-width="1.5"></path><path d="M797.58 353.45L977.54 389.94" stroke="hsl(0, 0%, 100%)" stroke-width="1.5"></path><path d="M832.2 557.08L832.2 557.08" stroke="hsl(0, 0%, 100%)" stroke-width="1.5"></path><path d="M832.2 557.08L969.94 514.26" stroke="hsl(0, 0%, 100%)" stroke-width="1.5"></path><path d="M832.2 557.08L797.58 353.45" stroke="hsl(0, 0%, 100%)" stroke-width="1.5"></path><path d="M832.2 557.08L977.54 389.94" stroke="hsl(0, 0%, 100%)" stroke-width="1.5"></path><path d="M977.54 389.94L977.54 389.94" stroke="hsl(0, 0%, 100%)" stroke-width="1.5"></path><path d="M977.54 389.94L969.94 514.26" stroke="hsl(0, 0%, 100%)" stroke-width="1.5"></path><path d="M977.54 389.94L1110.83 400.36" stroke="hsl(0, 0%, 100%)" stroke-width="1.5"></path><path d="M977.54 389.94L1124.31 540.02" stroke="hsl(0, 0%, 100%)" stroke-width="1.5"></path><path d="M977.54 389.94L1139.75 214.83" stroke="hsl(0, 0%, 100%)" stroke-width="1.5"></path><path d="M969.94 514.26L969.94 514.26" stroke="hsl(0, 0%, 100%)" stroke-width="1.5"></path><path d="M1139.75 214.83L1139.75 214.83" stroke="hsl(0, 0%, 100%)" stroke-width="1.5"></path><path d="M1139.75 214.83L1304.32 210.53" stroke="hsl(0, 0%, 100%)" stroke-width="1.5"></path><path d="M1139.75 214.83L1283.44 108.37" stroke="hsl(0, 0%, 100%)" stroke-width="1.5"></path><path d="M1139.75 214.83L1110.83 400.36" stroke="hsl(0, 0%, 100%)" stroke-width="1.5"></path><path d="M1139.75 214.83L1274.09 405.39" stroke="hsl(0, 0%, 100%)" stroke-width="1.5"></path><path d="M1139.75 214.83L1431.77 231.24" stroke="hsl(0, 0%, 100%)" stroke-width="1.5"></path><path d="M1110.83 400.36L1110.83 400.36" stroke="hsl(0, 0%, 100%)" stroke-width="1.5"></path><path d="M1110.83 400.36L1274.09 405.39" stroke="hsl(0, 0%, 100%)" stroke-width="1.5"></path><path d="M1110.83 400.36L969.94 514.26" stroke="hsl(0, 0%, 100%)" stroke-width="1.5"></path><path d="M1094.56 646.24L1094.56 646.24" stroke="hsl(0, 0%, 100%)" stroke-width="1.5"></path><path d="M1094.56 646.24L969.94 514.26" stroke="hsl(0, 0%, 100%)" stroke-width="1.5"></path><path d="M1094.56 646.24L1308.87 669.88" stroke="hsl(0, 0%, 100%)" stroke-width="1.5"></path><path d="M1094.56 646.24L1270.42 517.02" stroke="hsl(0, 0%, 100%)" stroke-width="1.5"></path><path d="M1094.56 646.24L1110.83 400.36" stroke="hsl(0, 0%, 100%)" stroke-width="1.5"></path><path d="M1278.52 -96.23L1278.52 -96.23" stroke="hsl(0, 0%, 100%)" stroke-width="1.5"></path><path d="M1278.52 -96.23L1404.95 -42.04" stroke="hsl(0, 0%, 100%)" stroke-width="1.5"></path><path d="M1278.52 -96.23L1283.44 108.37" stroke="hsl(0, 0%, 100%)" stroke-width="1.5"></path><path d="M1278.52 -96.23L1430.88 108.63" stroke="hsl(0, 0%, 100%)" stroke-width="1.5"></path><path d="M1278.52 -96.23L1304.32 210.53" stroke="hsl(0, 0%, 100%)" stroke-width="1.5"></path><path d="M1278.52 -96.23L1594.63 -83.45" stroke="hsl(0, 0%, 100%)" stroke-width="1.5"></path><path d="M1283.44 108.37L1283.44 108.37" stroke="hsl(0, 0%, 100%)" stroke-width="1.5"></path><path d="M1283.44 108.37L1304.32 210.53" stroke="hsl(0, 0%, 100%)" stroke-width="1.5"></path><path d="M1283.44 108.37L1430.88 108.63" stroke="hsl(0, 0%, 100%)" stroke-width="1.5"></path><path d="M1304.32 210.53L1304.32 210.53" stroke="hsl(0, 0%, 100%)" stroke-width="1.5"></path><path d="M1304.32 210.53L1431.77 231.24" stroke="hsl(0, 0%, 100%)" stroke-width="1.5"></path><path d="M1274.09 405.39L1274.09 405.39" stroke="hsl(0, 0%, 100%)" stroke-width="1.5"></path><path d="M1274.09 405.39L1406.09 364.57" stroke="hsl(0, 0%, 100%)" stroke-width="1.5"></path><path d="M1274.09 405.39L1408.42 536.94" stroke="hsl(0, 0%, 100%)" stroke-width="1.5"></path><path d="M1308.87 669.88L1308.87 669.88" stroke="hsl(0, 0%, 100%)" stroke-width="1.5"></path><path d="M1308.87 669.88L1390.3 706.78" stroke="hsl(0, 0%, 100%)" stroke-width="1.5"></path><path d="M1308.87 669.88L1124.31 540.02" stroke="hsl(0, 0%, 100%)" stroke-width="1.5"></path><path d="M1308.87 669.88L1554.89 642.34" stroke="hsl(0, 0%, 100%)" stroke-width="1.5"></path><path d="M1404.95 -42.04L1404.95 -42.04" stroke="hsl(0, 0%, 100%)" stroke-width="1.5"></path><path d="M1404.95 -42.04L1430.88 108.63" stroke="hsl(0, 0%, 100%)" stroke-width="1.5"></path><path d="M1404.95 -42.04L1548.34 79.58" stroke="hsl(0, 0%, 100%)" stroke-width="1.5"></path><path d="M1404.95 -42.04L1283.44 108.37" stroke="hsl(0, 0%, 100%)" stroke-width="1.5"></path><path d="M1430.88 108.63L1430.88 108.63" stroke="hsl(0, 0%, 100%)" stroke-width="1.5"></path><path d="M1430.88 108.63L1548.34 79.58" stroke="hsl(0, 0%, 100%)" stroke-width="1.5"></path><path d="M1430.88 108.63L1431.77 231.24" stroke="hsl(0, 0%, 100%)" stroke-width="1.5"></path><path d="M1430.88 108.63L1569.19 191.52" stroke="hsl(0, 0%, 100%)" stroke-width="1.5"></path><path d="M1430.88 108.63L1304.32 210.53" stroke="hsl(0, 0%, 100%)" stroke-width="1.5"></path><path d="M1431.77 231.24L1431.77 231.24" stroke="hsl(0, 0%, 100%)" stroke-width="1.5"></path><path d="M1431.77 231.24L1406.09 364.57" stroke="hsl(0, 0%, 100%)" stroke-width="1.5"></path><path d="M1431.77 231.24L1569.19 191.52" stroke="hsl(0, 0%, 100%)" stroke-width="1.5"></path><path d="M1406.09 364.57L1406.09 364.57" stroke="hsl(0, 0%, 100%)" stroke-width="1.5"></path><path d="M1390.3 706.78L1390.3 706.78" stroke="hsl(0, 0%, 100%)" stroke-width="1.5"></path><path d="M1390.3 706.78L1554.89 642.34" stroke="hsl(0, 0%, 100%)" stroke-width="1.5"></path><path d="M1390.3 706.78L1270.42 517.02" stroke="hsl(0, 0%, 100%)" stroke-width="1.5"></path><path d="M1548.34 79.58L1548.34 79.58" stroke="hsl(0, 0%, 100%)" stroke-width="1.5"></path><path d="M1548.34 79.58L1569.19 191.52" stroke="hsl(0, 0%, 100%)" stroke-width="1.5"></path><path d="M1569.19 191.52L1569.19 191.52" stroke="hsl(0, 0%, 100%)" stroke-width="1.5"></path><path d="M1549.71 494.5L1549.71 494.5" stroke="hsl(0, 0%, 100%)" stroke-width="1.5"></path><path d="M1554.89 642.34L1554.89 642.34" stroke="hsl(0, 0%, 100%)" stroke-width="1.5"></path><path d="M1554.89 642.34L1549.71 494.5" stroke="hsl(0, 0%, 100%)" stroke-width="1.5"></path><circle r="25" cx="699.6" cy="405.95" fill="url(#SvgjsRadialGradient1009)"></circle><circle r="25" cx="841.79" cy="644.83" fill="url(#SvgjsRadialGradient1009)"></circle><circle r="25" cx="1124.31" cy="540.02" fill="url(#SvgjsRadialGradient1009)"></circle><circle r="25" cx="1270.42" cy="517.02" fill="url(#SvgjsRadialGradient1009)"></circle><circle r="25" cx="1408.42" cy="536.94" fill="url(#SvgjsRadialGradient1009)"></circle><circle r="25" cx="1594.63" cy="-83.45" fill="url(#SvgjsRadialGradient1009)"></circle><circle r="25" cx="1553.83" cy="396.18" fill="url(#SvgjsRadialGradient1009)"></circle><circle r="5" cx="-83.29" cy="490.96" fill="#ffffff"></circle><circle r="5" cx="-89.63" cy="670.5" fill="#ffffff"></circle><circle r="5" cx="66.85" cy="551.4" fill="#ffffff"></circle><circle r="5" cx="98.85" cy="642.99" fill="#ffffff"></circle><circle r="5" cx="254.7" cy="488.31" fill="#ffffff"></circle><circle r="5" cx="189.48" cy="683.73" fill="#ffffff"></circle><circle r="5" cx="353.36" cy="488.56" fill="#ffffff"></circle><circle r="5" cx="339.94" cy="691.64" fill="#ffffff"></circle><circle r="5" cx="495.45" cy="540.33" fill="#ffffff"></circle><circle r="5" cx="548.47" cy="691.77" fill="#ffffff"></circle><circle r="5" cx="693.97" cy="702.47" fill="#ffffff"></circle><circle r="5" cx="797.58" cy="353.45" fill="#ffffff"></circle><circle r="5" cx="832.2" cy="557.08" fill="#ffffff"></circle><circle r="5" cx="977.54" cy="389.94" fill="#ffffff"></circle><circle r="5" cx="969.94" cy="514.26" fill="#ffffff"></circle><circle r="5" cx="1139.75" cy="214.83" fill="#ffffff"></circle><circle r="5" cx="1110.83" cy="400.36" fill="#ffffff"></circle><circle r="5" cx="1094.56" cy="646.24" fill="#ffffff"></circle><circle r="5" cx="1278.52" cy="-96.23" fill="#ffffff"></circle><circle r="5" cx="1283.44" cy="108.37" fill="#ffffff"></circle><circle r="5" cx="1304.32" cy="210.53" fill="#ffffff"></circle><circle r="5" cx="1274.09" cy="405.39" fill="#ffffff"></circle><circle r="5" cx="1308.87" cy="669.88" fill="#ffffff"></circle><circle r="5" cx="1404.95" cy="-42.04" fill="#ffffff"></circle><circle r="5" cx="1430.88" cy="108.63" fill="#ffffff"></circle><circle r="5" cx="1431.77" cy="231.24" fill="#ffffff"></circle><circle r="5" cx="1406.09" cy="364.57" fill="#ffffff"></circle><circle r="5" cx="1390.3" cy="706.78" fill="#ffffff"></circle><circle r="5" cx="1548.34" cy="79.58" fill="#ffffff"></circle><circle r="5" cx="1569.19" cy="191.52" fill="#ffffff"></circle><circle r="5" cx="1549.71" cy="494.5" fill="#ffffff"></circle><circle r="5" cx="1554.89" cy="642.34" fill="#ffffff"></circle></g><defs><mask id="SvgjsMask1008"><rect width="1440" height="560" fill="#ffffff"></rect></mask><radialGradient id="SvgjsRadialGradient1009"><stop stop-color="#ffffff" offset="0.1"></stop><stop stop-color="rgba(255, 255, 255, 1)" offset="0.2"></stop><stop stop-color="rgba(255, 255, 255, 0)" offset="1"></stop></radialGradient></defs></svg>